<?xml version="1.0"?>
<svg xmlns="http://www.w3.org/2000/svg" xmlns:xlink="http://www.w3.org/1999/xlink" xmlns:svgjs="http://svgjs.com/svgjs" version="1.1" width="48" height="48" x="0" y="0" viewBox="0 0 512 512" style="enable-background:new 0 0 512 512" xml:space="preserve"><g><path xmlns="http://www.w3.org/2000/svg" d="m119.992 272a72 72 0 1 0 72 72 72.084 72.084 0 0 0 -72-72zm0 128a56 56 0 1 1 56-56 56.063 56.063 0 0 1 -56 56z" fill="#ffffff" data-original="#000000" style=""/><path xmlns="http://www.w3.org/2000/svg" d="m391.993 272a72 72 0 1 0 72 72 72.084 72.084 0 0 0 -72-72zm0 128a56 56 0 1 1 56-56 56.063 56.063 0 0 1 -56 56z" fill="#ffffff" data-original="#000000" style=""/><path xmlns="http://www.w3.org/2000/svg" d="m239.993 271.998h32v16h-32z" fill="#ffffff" data-original="#000000" style=""/><path xmlns="http://www.w3.org/2000/svg" d="m247.993 399.998h16v16h-16z" fill="#ffffff" data-original="#000000" style=""/><path xmlns="http://www.w3.org/2000/svg" d="m471.993 160h-48v-72a24.026 24.026 0 0 0 -24-24h-288a24.026 24.026 0 0 0 -24 24v72h-48a24.026 24.026 0 0 0 -24 24v240a24.026 24.026 0 0 0 24 24h432a24.026 24.026 0 0 0 24-24v-240a24.026 24.026 0 0 0 -24-24zm8 24v56h-9.136a32.01 32.01 0 0 0 -13.476-18.8l6.206-18.682a8 8 0 0 0 -15.188-5.047l-6.226 18.744c-.734-.051-1.433-.22-2.18-.22a31.971 31.971 0 0 0 -30.864 24h-9.136v-63.995h72a8.011 8.011 0 0 1 8 8zm-40 48a16.012 16.012 0 0 1 13.852 8h-27.7a16.012 16.012 0 0 1 13.848-8zm-72 8v-16h-16v16h-32v-16h-16v16h-32v-16h-16v16h-32v-16h-16v16h-32v-16h-16v16h-32v-16h-16v16h-16v-32h288v32zm-144 80h64v48h-64zm64-16h-64v-48h64zm96-128v16h-288v-16zm-8-64v48h-16v-24a8 8 0 0 0 -8-8h-32a8 8 0 0 0 -8 8h-16a8 8 0 0 0 -8-8h-128a8 8 0 0 0 -8 8v24h-16v-48zm-80 48v-8h16v8zm-32 0v-16h16v16zm-32 0v-16h16v16zm-32 0v-16h16v16zm-32 0v-16h16v16zm160-16h16v16h-16zm64 16v-48h16v48zm-288-72a8.01 8.01 0 0 1 8-8h288a8.01 8.01 0 0 1 8 8v8h-304zm0 24h16v48h-16zm-72 72a8.011 8.011 0 0 1 8-8h40v64h-48zm0 240v-168h176v176h-168a8.011 8.011 0 0 1 -8.001-8zm192 8v-48h64v48zm256-8a8.011 8.011 0 0 1 -8 8h-168v-176h176z" fill="#ffffff" data-original="#000000" style=""/><path xmlns="http://www.w3.org/2000/svg" d="m47.992 199.998h16v16h-16z" fill="#ffffff" data-original="#000000" style=""/><path xmlns="http://www.w3.org/2000/svg" d="m111.992 303.998h16v16h-16z" fill="#ffffff" data-original="#000000" style=""/><path xmlns="http://www.w3.org/2000/svg" d="m111.992 335.998h16v16h-16z" fill="#ffffff" data-original="#000000" style=""/><path xmlns="http://www.w3.org/2000/svg" d="m111.992 367.998h16v16h-16z" fill="#ffffff" data-original="#000000" style=""/><path xmlns="http://www.w3.org/2000/svg" d="m143.992 335.998h16v16h-16z" fill="#ffffff" data-original="#000000" style=""/><path xmlns="http://www.w3.org/2000/svg" d="m79.992 335.998h16v16h-16z" fill="#ffffff" data-original="#000000" style=""/><path xmlns="http://www.w3.org/2000/svg" d="m383.993 303.998h16v16h-16z" fill="#ffffff" data-original="#000000" style=""/><path xmlns="http://www.w3.org/2000/svg" d="m383.993 335.998h16v16h-16z" fill="#ffffff" data-original="#000000" style=""/><path xmlns="http://www.w3.org/2000/svg" d="m383.993 367.998h16v16h-16z" fill="#ffffff" data-original="#000000" style=""/><path xmlns="http://www.w3.org/2000/svg" d="m415.993 335.998h16v16h-16z" fill="#ffffff" data-original="#000000" style=""/><path xmlns="http://www.w3.org/2000/svg" d="m351.993 335.998h16v16h-16z" fill="#ffffff" data-original="#000000" style=""/></g></svg>
