<?xml version="1.0"?>
<svg xmlns="http://www.w3.org/2000/svg" xmlns:xlink="http://www.w3.org/1999/xlink" xmlns:svgjs="http://svgjs.com/svgjs" version="1.1" width="48" height="48" x="0" y="0" viewBox="0 0 512 512" style="enable-background:new 0 0 512 512" xml:space="preserve"><g><g xmlns="http://www.w3.org/2000/svg"><g><g><g><path d="m191.091 143.554c26.415 0 47.904-21.532 47.904-47.999 0-26.466-21.49-47.998-47.904-47.998-22.993 0-42.253 16.315-46.858 37.998h-134.233c-5.523 0-10 4.478-10 10s4.477 10 10 10h134.234c4.604 21.683 23.864 37.999 46.857 37.999zm0-75.997c15.386 0 27.904 12.56 27.904 27.998s-12.518 27.999-27.904 27.999-27.904-12.561-27.904-27.999 12.518-27.998 27.904-27.998z" fill="#ffffff" data-original="#000000" style=""/><path d="m329.153 338.732-51.374-72.763c-1.874-2.654-4.92-4.232-8.169-4.232s-6.295 1.578-8.169 4.232l-51.374 72.763c-2.441 3.458-2.441 8.077 0 11.535l51.374 72.763c1.874 2.654 4.92 4.232 8.169 4.232s6.295-1.578 8.169-4.232l51.374-72.763c2.442-3.458 2.442-8.077 0-11.535zm-59.542 61.192-39.132-55.425 39.132-55.425 39.132 55.425z" fill="#ffffff" data-original="#000000" style=""/><path d="m484.609 444.689v-211.011c15.512-2.524 27.391-16.021 27.391-32.285 0-18.005-14.648-32.653-32.654-32.653h-114.163c11.512-16.046 11.937-37.67 1.275-54.128l94.941-95.178c3.9-3.91 3.893-10.242-.017-14.143-3.911-3.9-10.242-3.893-14.143.018l-94.905 95.141c-7.691-5.017-16.672-7.708-26.066-7.708-12.8 0-24.833 4.995-33.882 14.066-16.799 16.842-18.476 43.19-5.031 61.931h-227.48c-18.005 0-32.654 14.648-32.654 32.71 0 16.214 11.879 29.705 27.391 32.229v211.011c-15.512 2.525-27.391 16.021-27.391 32.286 0 18.005 14.648 32.653 32.654 32.653h419.471c18.005 0 32.654-14.648 32.654-32.71 0-16.213-11.879-29.705-27.391-32.229zm-178.063-323.755c5.27-5.282 12.274-8.191 19.723-8.191s14.453 2.909 19.722 8.191c10.895 10.921 10.895 28.692 0 39.613-5.27 5.282-12.274 8.191-19.723 8.191s-14.453-2.909-19.722-8.191c-10.894-10.921-10.894-28.692 0-39.613zm-259.325 80.459c0-6.978 5.676-12.653 12.654-12.653h419.471c6.978 0 12.654 5.676 12.654 12.71 0 6.978-5.676 12.653-12.654 12.653h-419.471c-6.978 0-12.654-5.676-12.654-12.71zm432.125 288.236h-419.471c-6.978 0-12.654-5.676-12.654-12.71 0-6.978 5.676-12.654 12.654-12.654h164.529c5.523 0 10-4.478 10-10s-4.477-10-10-10h-149.792v-68.265l33.204 47.029c1.874 2.654 4.92 4.232 8.169 4.232s6.295-1.578 8.169-4.232l51.374-72.763c2.441-3.457 2.441-8.078 0-11.535l-51.374-72.763c-1.874-2.654-4.92-4.232-8.169-4.232s-6.295 1.578-8.169 4.232l-33.204 47.029v-78.895h389.998v78.895l-33.205-47.029c-1.874-2.654-4.92-4.232-8.169-4.232s-6.295 1.578-8.169 4.232l-51.374 72.763c-2.441 3.458-2.441 8.077 0 11.535l51.374 72.763c1.874 2.654 4.92 4.232 8.169 4.232s6.295-1.578 8.169-4.232l33.204-47.029v68.265h-149.792c-5.523 0-10 4.478-10 10s4.477 10 10 10h164.529c6.978 0 12.654 5.677 12.654 12.711 0 6.977-5.676 12.653-12.654 12.653zm-402.493-145.13 39.132-55.425 39.133 55.425-39.133 55.425zm385.515 0-39.132 55.425-39.132-55.425 39.132-55.425z" fill="#ffffff" data-original="#000000" style=""/></g></g><g><g><path d="m269.43 464.26c-4.117 0-7.911-2.619-9.36-6.476-1.484-3.951-.271-8.584 3.015-11.252 3.246-2.635 7.888-2.99 11.482-.841 3.576 2.138 5.492 6.439 4.663 10.529-.936 4.619-5.08 8.04-9.8 8.04z" fill="#ffffff" data-original="#000000" style=""/></g></g></g></g></g></svg>
