<?xml version="1.0"?>
<svg xmlns="http://www.w3.org/2000/svg" xmlns:xlink="http://www.w3.org/1999/xlink" xmlns:svgjs="http://svgjs.com/svgjs" version="1.1" width="48" height="48" x="0" y="0" viewBox="0 0 512 512" style="enable-background:new 0 0 512 512" xml:space="preserve"><g><g xmlns="http://www.w3.org/2000/svg"><g><path d="m122.133 125.461c-1.47 0-2.955-.431-4.257-1.33-3.408-2.355-4.261-7.026-1.907-10.434l4.998-7.233c2.354-3.407 7.026-4.26 10.433-1.907 3.408 2.355 4.261 7.026 1.907 10.434l-4.998 7.233c-1.455 2.107-3.796 3.237-6.176 3.237z" fill="#ffffff" data-original="#000000" style=""/></g><g><path d="m373.102 97.378h-.059c-4.142 0-7.47 3.358-7.47 7.5s3.388 7.5 7.529 7.5c4.142 0 7.5-3.358 7.5-7.5s-3.358-7.5-7.5-7.5z" fill="#ffffff" data-original="#000000" style=""/><path d="m475.975 213.278h-.662c5.052-16.781 5.871-34.409 2.211-50.63-1.502-6.658-3.739-13.01-6.644-19.016-.158-.407-.347-.8-.572-1.172-6.785-13.503-17.053-25.178-30.38-34.374l-21.756-15.024c-.001-.001-.002-.001-.002-.001l-.001-.001-63.707-43.952c-4.238-2.928-8.621-5.957-13.859-4.995-5.232.959-8.259 5.341-11.191 9.584-2.667 3.868-4.925 8.111-6.783 12.59l-10.647-7.326c-11.429-7.907-14.318-23.65-6.449-35.079 6.61-9.555 19.055-11.395 36.992-5.466l111.105 36.691c3.931 1.298 8.174-.836 9.473-4.769s-.836-8.174-4.769-9.473l-111.103-36.693c-31.149-10.295-46.575.394-54.043 11.188-12.557 18.24-7.954 43.331 10.276 55.945l14.654 10.084c-4.042 21.021.178 44.183 14.553 59.801-4.294 5.758-7.1 13.692-8.1 23.173-.435 4.119 2.552 7.811 6.671 8.245.268.028.533.042.796.042 3.788 0 7.043-2.862 7.449-6.713.663-6.283 2.362-11.58 4.748-15.124 5.059 3.514 9.11 6.251 12.739 8.703 1.554 1.05 3.043 2.057 4.52 3.062-5.784 6.567-8.527 15.245-7.486 24.464.433 3.83 3.678 6.659 7.443 6.659.281 0 .565-.016.851-.048 4.116-.465 7.076-4.178 6.611-8.294-.783-6.937 2.131-11.393 4.965-14.027 9.85 7.434 16.506 15.104 19.81 22.681.148.511.349 1.002.599 1.466 2.303 6.064 2.447 12.054.361 17.798h-77.841c-3.839-49.539-45.375-88.674-95.881-88.674-50.492 0-92.04 39.136-95.906 88.674h-88.995c-14.657 0-26.58 11.937-26.58 26.611 0 14.39 11.495 26.138 25.784 26.561 3.338 84.511 54.286 159.407 131.832 193.488v38.654c0 7.394 6.015 13.41 13.409 13.41h151.06c7.394 0 13.409-6.015 13.409-13.41v-38.654c77.546-34.081 128.494-108.976 131.832-193.488 14.289-.423 25.784-12.171 25.784-26.561 0-14.673-11.923-26.61-26.58-26.61zm-16.446 0h-49.31c.942-4.369 1.106-8.809.503-13.261 12.372-.393 24.77-4.603 35.221-12.158 7.184-5.193 13.136-11.76 17.54-19.125 2.848 15.566.736 31.294-3.954 44.544zm-109.45-76.674c-.61-.421-1.197-.865-1.775-1.317-.117-.098-.24-.187-.362-.277-20.616-16.501-20.531-51.986-6.185-72.794.33-.478 1.044-1.512 1.721-2.416.951.606 1.983 1.319 2.462 1.65l63.711 43.955c2.539 1.753 3.558 3.949 3.302 7.12-.631 7.821-9.565 19.841-23.425 26.418-7.982 3.787-23.72 8.519-39.449-2.339zm31.081 21.452c-.269-.196-.524-.378-.788-.569 5.221-.897 10.453-2.557 15.587-4.993 16.08-7.631 28.412-21.547 31.355-34.893l4.095 2.828c11.379 7.851 19.347 17.116 24.65 26.999-4.854 22.563-27.284 39.162-50.279 37.512-4.917-9.408-13.188-18.564-24.62-26.884zm-160.235-18.453c42.229 0 77.014 32.419 80.813 73.675h-16.104c-3.733-32.406-31.321-57.656-64.709-57.656-17.841 0-34.025 7.207-45.808 18.855-.092.083-.187.161-.276.25-.088.088-.164.182-.247.273-9.989 10.1-16.696 23.439-18.408 38.279h-16.1c3.827-41.257 38.622-73.676 80.839-73.676zm40.362 51.443c4.74 6.417 7.982 14.001 9.223 22.232h-31.47zm-32.862 11.635v-31.497c8.245 1.242 15.837 4.5 22.261 9.252zm-37.268-22.253c6.427-4.749 14.021-8.005 22.268-9.245v31.498zm11.653 32.85h-31.5c1.243-8.237 4.491-15.825 9.239-22.246zm133.129 234.211h-67.738c-4.142 0-7.5 3.358-7.5 7.5s3.358 7.5 7.5 7.5h61.739v34.513h-147.88v-34.513h50.213c4.142 0 7.5-3.358 7.5-7.5s-3.358-7.5-7.5-7.5h-56.212c-53.351-22.47-93.584-65.503-113.042-117.718h385.962c-19.459 52.215-59.692 95.248-113.042 117.718zm140.036-196.019h-201.805c-4.142 0-7.5 3.358-7.5 7.5s3.358 7.5 7.5 7.5h187.593c-.705 16.593-3.38 32.784-7.84 48.302h-395.846c-4.46-15.518-7.135-31.709-7.84-48.302h187.329c4.142 0 7.5-3.358 7.5-7.5s-3.358-7.5-7.5-7.5h-201.541c-6.386 0-11.581-5.196-11.581-11.582 0-6.403 5.195-11.611 11.581-11.611h96.194.004 343.751c6.386 0 11.581 5.209 11.581 11.611.001 6.387-5.194 11.582-11.58 11.582z" fill="#ffffff" data-original="#000000" style=""/><path d="m117.876 124.131c1.301.899 2.786 1.33 4.257 1.33 2.38 0 4.721-1.13 6.176-3.237l4.998-7.233c2.354-3.408 1.501-8.079-1.907-10.434-3.407-2.353-8.079-1.5-10.433 1.907l-4.998 7.233c-2.354 3.408-1.5 8.079 1.907 10.434z" fill="#ffffff" data-original="#000000" style=""/><path d="m170.781 88.698c.602 9.179 4.514 12.983 13.445 12.983.235 0 .476-.002.719-.008 20.099-.409 38.398-8.495 51.526-22.767 13.109-14.251 19.633-33.168 18.369-53.287-.619-9.443-4.737-13.208-14.176-13.004-20.105.443-38.4 8.539-51.514 22.796-13.109 14.251-19.633 33.168-18.371 53.266.001.007.002.014.002.021zm29.409-43.133c10.096-10.976 24.174-17.316 39.739-17.922.715 15.579-4.412 30.143-14.498 41.109-10.104 10.984-24.18 17.314-39.74 17.894-.709-15.569 4.418-30.121 14.499-41.081z" fill="#ffffff" data-original="#000000" style=""/><path d="m65.899 180.788c2.877 2.133 5.538 3.204 8.052 3.204 3.255 0 6.261-1.796 9.163-5.404 10.266-12.69 14.822-28.251 12.832-43.805-1.962-15.6-10.266-29.542-23.379-39.253-6.657-4.936-11.961-4.265-17.204 2.189-10.244 12.656-14.805 28.217-12.841 43.832 1.997 15.617 10.3 29.553 23.377 39.237zm-.351-71.715c8.685 7.143 14.166 16.854 15.518 27.598 1.37 10.711-1.517 21.479-8.147 30.575-8.662-7.128-14.143-16.841-15.517-27.582-1.352-10.747 1.536-21.523 8.146-30.591z" fill="#ffffff" data-original="#000000" style=""/><path d="m265.63 112.539c1.457 2.096 3.791 3.22 6.165 3.22 1.476 0 2.969-.435 4.274-1.342 3.401-2.364 4.242-7.037 1.877-10.438l-5.028-7.233c-2.363-3.4-7.036-4.243-10.438-1.877-3.401 2.364-4.241 7.037-1.877 10.438z" fill="#ffffff" data-original="#000000" style=""/></g></g></g></svg>
